<?xml version="1.0" encoding="UTF-8" standalone="no"?>
<svg
   width="172.56772"
   zoomAndPan="magnify"
   viewBox="0 0 129.35676 32.503906"
   height="43.338543"
   preserveAspectRatio="xMidYMid"
   version="1.0"
   id="svg93"
   sodipodi:docname="Твоя_косметика_лого_узкий_без_фон_300_x_150_пикс_.svg"
   inkscape:version="1.4 (e7c3feb1, 2024-10-09)"
   xmlns:inkscape="http://www.inkscape.org/namespaces/inkscape"
   xmlns:sodipodi="http://sodipodi.sourceforge.net/DTD/sodipodi-0.dtd"
   xmlns="http://www.w3.org/2000/svg"
   xmlns:svg="http://www.w3.org/2000/svg">
  <sodipodi:namedview
     id="namedview93"
     pagecolor="#ffffff"
     bordercolor="#000000"
     borderopacity="0.25"
     inkscape:showpageshadow="2"
     inkscape:pageopacity="0.0"
     inkscape:pagecheckerboard="0"
     inkscape:deskcolor="#d1d1d1"
     inkscape:zoom="1.6104616"
     inkscape:cx="31.046998"
     inkscape:cy="88.794415"
     inkscape:window-width="2056"
     inkscape:window-height="1225"
     inkscape:window-x="0"
     inkscape:window-y="44"
     inkscape:window-maximized="1"
     inkscape:current-layer="svg93" />
  <defs
     id="defs20">
    <g
       id="g1" />
    <clipPath
       id="c4b58c33ef">
      <path
         d="M 0.4375,0 H 224.32422 V 112.00391 H 0.4375 Z m 0,0"
         clip-rule="nonzero"
         id="path1" />
    </clipPath>
    <clipPath
       id="0ced3af46f">
      <path
         d="M 20,2 H 220 V 112.00391 H 20 Z m 0,0"
         clip-rule="nonzero"
         id="path2" />
    </clipPath>
    <clipPath
       id="95ff5df3f2">
      <path
         d="m 10,81 h 176 v 29.00391 H 10 Z m 0,0"
         clip-rule="nonzero"
         id="path3" />
    </clipPath>
    <clipPath
       id="6f2d6efa97">
      <rect
         x="0"
         width="176"
         y="0"
         height="30"
         id="rect3" />
    </clipPath>
    <clipPath
       id="65bf5cc743">
      <path
         d="M 1.046875,0.585938 H 33.550781 V 33.089844 H 1.046875 Z m 0,0"
         clip-rule="nonzero"
         id="path4" />
    </clipPath>
    <clipPath
       id="653d1bdbbf">
      <path
         d="m 17.300781,0.585938 c -1.070312,0 -2.125,0.101562 -3.171875,0.3125 -1.046875,0.207031 -2.0625,0.515624 -3.050781,0.921874 C 10.09375,2.230469 9.15625,2.730469 8.269531,3.324219 7.382812,3.917969 6.5625,4.589844 5.804688,5.34375 5.050781,6.101562 4.378906,6.921875 3.785156,7.808594 c -0.59375,0.886718 -1.09375,1.824218 -1.5,2.808594 -0.410156,0.988281 -0.71875,2.003906 -0.925781,3.050781 -0.210937,1.046875 -0.3125,2.101562 -0.3125,3.167969 0,1.070312 0.101563,2.125 0.3125,3.171874 0.207031,1.046876 0.515625,2.0625 0.925781,3.050782 0.40625,0.984375 0.90625,1.921875 1.5,2.808594 0.59375,0.886718 1.265625,1.707031 2.019532,2.464843 0.757812,0.753907 1.578124,1.425781 2.464843,2.019531 0.886719,0.59375 1.824219,1.09375 2.808594,1.503907 0.988281,0.40625 2.003906,0.714843 3.050781,0.921875 1.046875,0.210937 2.101563,0.3125 3.171875,0.3125 1.066407,0 2.121094,-0.101563 3.167969,-0.3125 1.046875,-0.207032 2.0625,-0.515625 3.050781,-0.921875 0.984375,-0.410157 1.921875,-0.910157 2.808594,-1.503907 0.886719,-0.59375 1.710937,-1.265624 2.464844,-2.019531 0.753906,-0.757812 1.425781,-1.578125 2.019531,-2.464843 0.59375,-0.886719 1.09375,-1.824219 1.503906,-2.808594 0.40625,-0.988282 0.714844,-2.003906 0.921875,-3.050782 0.210938,-1.046874 0.3125,-2.101562 0.3125,-3.171874 0,-1.066407 -0.101562,-2.121094 -0.3125,-3.167969 -0.207031,-1.046875 -0.515625,-2.0625 -0.921875,-3.050781 C 31.90625,9.632812 31.40625,8.695312 30.8125,7.808594 30.21875,6.921875 29.546875,6.101562 28.792969,5.34375 28.039062,4.589844 27.214844,3.917969 26.328125,3.324219 25.441406,2.730469 24.503906,2.230469 23.519531,1.820312 22.53125,1.414062 21.515625,1.105469 20.46875,0.898438 19.421875,0.6875 18.367188,0.585938 17.300781,0.585938 Z m 0,0"
         clip-rule="nonzero"
         id="path5" />
    </clipPath>
    <clipPath
       id="ace838de13">
      <path
         d="M 0.046875,0.585938 H 32.550781 V 33.089844 H 0.046875 Z m 0,0"
         clip-rule="nonzero"
         id="path6" />
    </clipPath>
    <clipPath
       id="79b1e876ef">
      <path
         d="m 16.300781,0.585938 c -1.070312,0 -2.125,0.101562 -3.171875,0.3125 -1.046875,0.207031 -2.0625,0.515624 -3.050781,0.921874 C 9.09375,2.230469 8.15625,2.730469 7.269531,3.324219 6.382812,3.917969 5.5625,4.589844 4.804688,5.34375 4.050781,6.101562 3.378906,6.921875 2.785156,7.808594 c -0.59375,0.886718 -1.09375,1.824218 -1.5,2.808594 -0.410156,0.988281 -0.71875,2.003906 -0.925781,3.050781 -0.210937,1.046875 -0.3125,2.101562 -0.3125,3.167969 0,1.070312 0.101563,2.125 0.3125,3.171874 0.207031,1.046876 0.515625,2.0625 0.925781,3.050782 0.40625,0.984375 0.90625,1.921875 1.5,2.808594 0.59375,0.886718 1.265625,1.707031 2.019532,2.464843 0.757812,0.753907 1.578124,1.425781 2.464843,2.019531 0.886719,0.59375 1.824219,1.09375 2.808594,1.503907 0.988281,0.40625 2.003906,0.714843 3.050781,0.921875 1.046875,0.210937 2.101563,0.3125 3.171875,0.3125 1.066407,0 2.121094,-0.101563 3.167969,-0.3125 1.046875,-0.207032 2.0625,-0.515625 3.050781,-0.921875 0.984375,-0.410157 1.921875,-0.910157 2.808594,-1.503907 0.886719,-0.59375 1.710937,-1.265624 2.464844,-2.019531 0.753906,-0.757812 1.425781,-1.578125 2.019531,-2.464843 0.59375,-0.886719 1.09375,-1.824219 1.503906,-2.808594 0.40625,-0.988282 0.714844,-2.003906 0.921875,-3.050782 0.210938,-1.046874 0.3125,-2.101562 0.3125,-3.171874 0,-1.066407 -0.101562,-2.121094 -0.3125,-3.167969 -0.207031,-1.046875 -0.515625,-2.0625 -0.921875,-3.050781 C 30.90625,9.632812 30.40625,8.695312 29.8125,7.808594 29.21875,6.921875 28.546875,6.101562 27.792969,5.34375 27.039062,4.589844 26.214844,3.917969 25.328125,3.324219 24.441406,2.730469 23.503906,2.230469 22.519531,1.820312 21.53125,1.414062 20.515625,1.105469 19.46875,0.898438 18.421875,0.6875 17.367188,0.585938 16.300781,0.585938 Z m 0,0"
         clip-rule="nonzero"
         id="path7" />
    </clipPath>
    <clipPath
       id="69fa82f1ce">
      <rect
         x="0"
         width="33"
         y="0"
         height="34"
         id="rect7" />
    </clipPath>
    <clipPath
       id="b275d3b624">
      <path
         d="M 48.574219,0.585938 H 81.082031 V 33.089844 H 48.574219 Z m 0,0"
         clip-rule="nonzero"
         id="path8" />
    </clipPath>
    <clipPath
       id="7bb5ab2a6c">
      <path
         d="m 64.828125,0.585938 c -1.066406,0 -2.125,0.101562 -3.171875,0.3125 -1.046875,0.207031 -2.0625,0.515624 -3.046875,0.921874 -0.988281,0.410157 -1.921875,0.910157 -2.8125,1.503907 -0.886719,0.59375 -1.707031,1.265625 -2.460937,2.019531 -0.753907,0.757812 -1.429688,1.578125 -2.023438,2.464844 -0.589844,0.886718 -1.09375,1.824218 -1.5,2.808594 -0.410156,0.988281 -0.71875,2.003906 -0.925781,3.050781 -0.207031,1.046875 -0.3125,2.101562 -0.3125,3.167969 0,1.070312 0.105469,2.125 0.3125,3.171874 0.207031,1.046876 0.515625,2.0625 0.925781,3.050782 0.40625,0.984375 0.910156,1.921875 1.5,2.808594 0.59375,0.886718 1.269531,1.707031 2.023438,2.464843 0.753906,0.753907 1.574218,1.425781 2.460937,2.019531 0.890625,0.59375 1.824219,1.09375 2.8125,1.503907 0.984375,0.40625 2,0.714843 3.046875,0.921875 1.046875,0.210937 2.105469,0.3125 3.171875,0.3125 1.066406,0 2.125,-0.101563 3.171875,-0.3125 1.046875,-0.207032 2.0625,-0.515625 3.046875,-0.921875 0.988281,-0.410157 1.921875,-0.910157 2.8125,-1.503907 0.886719,-0.59375 1.707031,-1.265624 2.460937,-2.019531 0.753907,-0.757812 1.429688,-1.578125 2.023438,-2.464843 0.589844,-0.886719 1.09375,-1.824219 1.5,-2.808594 0.410156,-0.988282 0.71875,-2.003906 0.925781,-3.050782 0.207031,-1.046874 0.3125,-2.101562 0.3125,-3.171874 0,-1.066407 -0.105469,-2.121094 -0.3125,-3.167969 C 80.5625,12.621094 80.253906,11.605469 79.84375,10.617188 79.4375,9.632812 78.933594,8.695312 78.34375,7.808594 77.75,6.921875 77.074219,6.101562 76.320312,5.34375 75.566406,4.589844 74.746094,3.917969 73.859375,3.324219 72.96875,2.730469 72.035156,2.230469 71.046875,1.820312 70.0625,1.414062 69.046875,1.105469 68,0.898438 66.953125,0.6875 65.894531,0.585938 64.828125,0.585938 Z m 0,0"
         clip-rule="nonzero"
         id="path9" />
    </clipPath>
    <clipPath
       id="442cf87d08">
      <path
         d="M 0.574219,0.585938 H 33.082031 V 33.089844 H 0.574219 Z m 0,0"
         clip-rule="nonzero"
         id="path10" />
    </clipPath>
    <clipPath
       id="0294374e96">
      <path
         d="m 16.828125,0.585938 c -1.066406,0 -2.125,0.101562 -3.171875,0.3125 -1.046875,0.207031 -2.0625,0.515624 -3.046875,0.921874 C 9.621094,2.230469 8.6875,2.730469 7.796875,3.324219 6.910156,3.917969 6.089844,4.589844 5.335938,5.34375 4.582031,6.101562 3.90625,6.921875 3.3125,7.808594 c -0.589844,0.886718 -1.09375,1.824218 -1.5,2.808594 -0.410156,0.988281 -0.71875,2.003906 -0.925781,3.050781 -0.207031,1.046875 -0.3125,2.101562 -0.3125,3.167969 0,1.070312 0.105469,2.125 0.3125,3.171874 0.207031,1.046876 0.515625,2.0625 0.925781,3.050782 0.40625,0.984375 0.910156,1.921875 1.5,2.808594 0.59375,0.886718 1.269531,1.707031 2.023438,2.464843 0.753906,0.753907 1.574218,1.425781 2.460937,2.019531 0.890625,0.59375 1.824219,1.09375 2.8125,1.503907 0.984375,0.40625 2,0.714843 3.046875,0.921875 1.046875,0.210937 2.105469,0.3125 3.171875,0.3125 1.066406,0 2.125,-0.101563 3.171875,-0.3125 1.046875,-0.207032 2.0625,-0.515625 3.046875,-0.921875 0.988281,-0.410157 1.921875,-0.910157 2.8125,-1.503907 0.886719,-0.59375 1.707031,-1.265624 2.460937,-2.019531 0.753907,-0.757812 1.429688,-1.578125 2.023438,-2.464843 0.589844,-0.886719 1.09375,-1.824219 1.5,-2.808594 0.410156,-0.988282 0.71875,-2.003906 0.925781,-3.050782 0.207031,-1.046874 0.3125,-2.101562 0.3125,-3.171874 0,-1.066407 -0.105469,-2.121094 -0.3125,-3.167969 C 32.5625,12.621094 32.253906,11.605469 31.84375,10.617188 31.4375,9.632812 30.933594,8.695312 30.34375,7.808594 29.75,6.921875 29.074219,6.101562 28.320312,5.34375 27.566406,4.589844 26.746094,3.917969 25.859375,3.324219 24.96875,2.730469 24.035156,2.230469 23.046875,1.820312 22.0625,1.414062 21.046875,1.105469 20,0.898438 18.953125,0.6875 17.894531,0.585938 16.828125,0.585938 Z m 0,0"
         clip-rule="nonzero"
         id="path11" />
    </clipPath>
    <clipPath
       id="f71ca6c73b">
      <rect
         x="0"
         width="34"
         y="0"
         height="34"
         id="rect11" />
    </clipPath>
    <clipPath
       id="e784b34448">
      <path
         d="M 97.964844,0.585938 H 130.47266 V 33.089844 H 97.964844 Z m 0,0"
         clip-rule="nonzero"
         id="path12" />
    </clipPath>
    <clipPath
       id="4d6be849bb">
      <path
         d="m 114.21875,0.585938 c -1.06641,0 -2.125,0.101562 -3.17187,0.3125 C 110,1.105469 108.98438,1.414062 108,1.820312 c -0.98828,0.410157 -1.92187,0.910157 -2.8125,1.503907 -0.88672,0.59375 -1.70703,1.265625 -2.46094,2.019531 -0.7539,0.757812 -1.42968,1.578125 -2.01953,2.464844 -0.59375,0.886718 -1.093749,1.824218 -1.503905,2.808594 -0.410156,0.988281 -0.714844,2.003906 -0.925781,3.050781 -0.207032,1.046875 -0.3125,2.101562 -0.3125,3.167969 0,1.070312 0.105468,2.125 0.3125,3.171874 0.210937,1.046876 0.515625,2.0625 0.925781,3.050782 0.410156,0.984375 0.910155,1.921875 1.503905,2.808594 0.58985,0.886718 1.26563,1.707031 2.01953,2.464843 0.75391,0.753907 1.57422,1.425781 2.46094,2.019531 0.89063,0.59375 1.82422,1.09375 2.8125,1.503907 0.98438,0.40625 2,0.714843 3.04688,0.921875 1.04687,0.210937 2.10546,0.3125 3.17187,0.3125 1.06641,0 2.125,-0.101563 3.17188,-0.3125 1.04687,-0.207032 2.0625,-0.515625 3.04687,-0.921875 0.98828,-0.410157 1.92578,-0.910157 2.8125,-1.503907 0.88672,-0.59375 1.70703,-1.265624 2.46094,-2.019531 0.7539,-0.757812 1.42969,-1.578125 2.02344,-2.464843 0.58984,-0.886719 1.09374,-1.824219 1.49999,-2.808594 0.41016,-0.988282 0.71875,-2.003906 0.92579,-3.050782 0.20703,-1.046874 0.3125,-2.101562 0.3125,-3.171874 0,-1.066407 -0.10547,-2.121094 -0.3125,-3.167969 -0.20704,-1.046875 -0.51563,-2.0625 -0.92579,-3.050781 -0.40625,-0.984376 -0.91015,-1.921876 -1.49999,-2.808594 -0.59375,-0.886719 -1.26954,-1.707032 -2.02344,-2.464844 -0.75391,-0.753906 -1.57422,-1.425781 -2.46094,-2.019531 -0.88672,-0.59375 -1.82422,-1.09375 -2.8125,-1.503907 -0.98437,-0.40625 -2,-0.714843 -3.04687,-0.921874 -1.04688,-0.210938 -2.10547,-0.3125 -3.17188,-0.3125 z m 0,0"
         clip-rule="nonzero"
         id="path13" />
    </clipPath>
    <clipPath
       id="df100900c1">
      <path
         d="M 0.964844,0.585938 H 33.472656 V 33.089844 H 0.964844 Z m 0,0"
         clip-rule="nonzero"
         id="path14" />
    </clipPath>
    <clipPath
       id="a077d8d392">
      <path
         d="m 17.21875,0.585938 c -1.066406,0 -2.125,0.101562 -3.171875,0.3125 C 13,1.105469 11.984375,1.414062 11,1.820312 10.011719,2.230469 9.078125,2.730469 8.1875,3.324219 7.300781,3.917969 6.480469,4.589844 5.726562,5.34375 4.972656,6.101562 4.296875,6.921875 3.707031,7.808594 c -0.59375,0.886718 -1.09375,1.824218 -1.503906,2.808594 -0.410156,0.988281 -0.714844,2.003906 -0.925781,3.050781 -0.207032,1.046875 -0.3125,2.101562 -0.3125,3.167969 0,1.070312 0.105468,2.125 0.3125,3.171874 0.210937,1.046876 0.515625,2.0625 0.925781,3.050782 0.410156,0.984375 0.910156,1.921875 1.503906,2.808594 0.589844,0.886718 1.265625,1.707031 2.019531,2.464843 0.753907,0.753907 1.574219,1.425781 2.460938,2.019531 0.890625,0.59375 1.824219,1.09375 2.8125,1.503907 0.984375,0.40625 2,0.714843 3.046875,0.921875 1.046875,0.210937 2.105469,0.3125 3.171875,0.3125 1.066406,0 2.125,-0.101563 3.171875,-0.3125 1.046875,-0.207032 2.0625,-0.515625 3.046875,-0.921875 0.988281,-0.410157 1.925781,-0.910157 2.8125,-1.503907 0.886719,-0.59375 1.707031,-1.265624 2.460938,-2.019531 0.753906,-0.757812 1.429687,-1.578125 2.023437,-2.464843 0.589844,-0.886719 1.09375,-1.824219 1.5,-2.808594 0.410156,-0.988282 0.71875,-2.003906 0.925781,-3.050782 0.207032,-1.046874 0.3125,-2.101562 0.3125,-3.171874 0,-1.066407 -0.105468,-2.121094 -0.3125,-3.167969 -0.207031,-1.046875 -0.515625,-2.0625 -0.925781,-3.050781 -0.40625,-0.984376 -0.910156,-1.921876 -1.5,-2.808594 C 30.140625,6.921875 29.464844,6.101562 28.710938,5.34375 27.957031,4.589844 27.136719,3.917969 26.25,3.324219 25.363281,2.730469 24.425781,2.230469 23.4375,1.820312 22.453125,1.414062 21.4375,1.105469 20.390625,0.898438 19.34375,0.6875 18.285156,0.585938 17.21875,0.585938 Z m 0,0"
         clip-rule="nonzero"
         id="path15" />
    </clipPath>
    <clipPath
       id="6792621943">
      <rect
         x="0"
         width="34"
         y="0"
         height="34"
         id="rect15" />
    </clipPath>
    <clipPath
       id="76fd29d3f9">
      <path
         d="M 0.179688,23 H 29 V 64 H 0.179688 Z m 0,0"
         clip-rule="nonzero"
         id="path16" />
    </clipPath>
    <clipPath
       id="e350f725ce">
      <rect
         x="0"
         width="45"
         y="0"
         height="80"
         id="rect16" />
    </clipPath>
    <clipPath
       id="84d32fe97d">
      <rect
         x="0"
         width="61"
         y="0"
         height="73"
         id="rect17" />
    </clipPath>
    <clipPath
       id="5eb43ad99d">
      <rect
         x="0"
         width="46"
         y="0"
         height="74"
         id="rect18" />
    </clipPath>
    <clipPath
       id="4b6f0faecb">
      <path
         d="m 151,22 h 48.78125 V 96 H 151 Z m 0,0"
         clip-rule="nonzero"
         id="path18" />
    </clipPath>
    <clipPath
       id="ba336852a3">
      <rect
         x="0"
         width="49"
         y="0"
         height="74"
         id="rect19" />
    </clipPath>
    <clipPath
       id="846718a019">
      <rect
         x="0"
         width="200"
         y="0"
         height="111"
         id="rect20" />
    </clipPath>
  </defs>
  <g
     clip-path="url(#65bf5cc743)"
     id="g56"
     transform="translate(-1.106877,-0.585938)">
    <g
       clip-path="url(#653d1bdbbf)"
       id="g55">
      <g
         transform="translate(1)"
         id="g54">
        <g
           clip-path="url(#69fa82f1ce)"
           id="g53">
          <g
             clip-path="url(#ace838de13)"
             id="g52">
            <g
               clip-path="url(#79b1e876ef)"
               id="g51">
              <path
                 fill="#ff2970"
                 d="M 0.046875,0.585938 H 32.550781 V 33.089844 H 0.046875 Z m 0,0"
                 fill-opacity="1"
                 fill-rule="nonzero"
                 id="path50" />
            </g>
          </g>
        </g>
      </g>
    </g>
  </g>
  <g
     clip-path="url(#b275d3b624)"
     id="g62"
     transform="translate(-1.106877,-0.585938)">
    <g
       clip-path="url(#7bb5ab2a6c)"
       id="g61">
      <g
         transform="translate(48)"
         id="g60">
        <g
           clip-path="url(#f71ca6c73b)"
           id="g59">
          <g
             clip-path="url(#442cf87d08)"
             id="g58">
            <g
               clip-path="url(#0294374e96)"
               id="g57">
              <path
                 fill="#a8a8a8"
                 d="M 0.574219,0.585938 H 33.082031 V 33.089844 H 0.574219 Z m 0,0"
                 fill-opacity="1"
                 fill-rule="nonzero"
                 id="path56" />
            </g>
          </g>
        </g>
      </g>
    </g>
  </g>
  <g
     clip-path="url(#e784b34448)"
     id="g68"
     transform="translate(-1.106877,-0.585938)">
    <g
       clip-path="url(#4d6be849bb)"
       id="g67">
      <g
         transform="translate(97)"
         id="g66">
        <g
           clip-path="url(#6792621943)"
           id="g65">
          <g
             clip-path="url(#df100900c1)"
             id="g64">
            <g
               clip-path="url(#a077d8d392)"
               id="g63">
              <path
                 fill="#ffe24a"
                 d="M 0.964844,0.585938 H 33.472656 V 33.089844 H 0.964844 Z m 0,0"
                 fill-opacity="1"
                 fill-rule="nonzero"
                 id="path62" />
            </g>
          </g>
        </g>
      </g>
    </g>
  </g>
</svg>
